<?xml version="1.0" encoding="UTF-8"?>
<svg id="Group_27" xmlns="http://www.w3.org/2000/svg" version="1.1" viewBox="0 0 87.3 22.46">
  <!-- Generator: Adobe Illustrator 30.3.0, SVG Export Plug-In . SVG Version: 2.1.3 Build 182)  -->
  <path id="Path_105" d="M27.07,6.71c1.49,0,2.95.33,4.3.96C30.47,2.81,25.79-.39,20.94.52c-4.1.77-7.12,4.26-7.3,8.42.03,3.17,1.81,6.06,4.62,7.51-.09-.38-.13-.77-.11-1.17.1-4.83,4.09-8.67,8.92-8.57"/>
  <rect id="Rectangle_33" x="6.95" y="18.7" width=".45" height="3.57"/>
  <path id="Path_106" d="M9.58,22.27v-3.74l2.68,2.81v-2.63h.45v3.72l-2.68-2.81v2.66h-.45Z"/>
  <path id="Path_107" d="M15.86,19.11v3.16h-.45v-3.16h-.85v-.41h2.14v.41h-.85Z"/>
  <path id="Path_108" d="M18.62,22.27v-3.57h1.92v.41h-1.47v1h1.43v.41h-1.43v1.35h1.47v.41h-1.92Z"/>
  <path id="Path_109" d="M23.75,20.72l1.13,1.55h-.54l-1.05-1.51h-.19v1.51h-.45v-3.57h.54c.18,0,.36,0,.54.03.14.02.28.06.4.13.1.06.18.13.26.22.07.09.12.19.16.3.04.11.06.22.06.33,0,.12-.02.25-.06.36-.04.11-.1.22-.17.31-.08.09-.17.16-.27.22-.11.06-.23.1-.35.11M23.1,19.1v1.29h.14c.24,0,.47-.04.69-.13.18-.11.29-.31.26-.52.02-.21-.09-.41-.27-.51-.22-.09-.46-.14-.7-.13h-.11Z"/>
  <path id="Path_110" d="M28.93,21.38h-1.64l-.41.9h-.47l1.71-3.72,1.71,3.72h-.48l-.41-.9ZM28.75,20.97l-.64-1.45-.64,1.45h1.27Z"/>
  <path id="Path_111" d="M34.28,18.87v.52c-.13-.12-.27-.2-.44-.26-.16-.06-.33-.09-.51-.09-.25,0-.5.07-.72.2-.21.13-.39.31-.51.53-.12.22-.19.47-.19.73,0,.25.06.5.19.72.12.22.29.4.51.53.21.13.46.2.71.2.17,0,.34-.04.5-.1.16-.06.32-.16.45-.28v.53c-.14.08-.29.14-.45.18-.81.22-1.67-.12-2.1-.85-.17-.28-.25-.6-.25-.93,0-.67.36-1.3.94-1.63.43-.25.95-.32,1.43-.19.15.04.29.1.43.18"/>
  <path id="Path_112" d="M37.33,19.11v3.16h-.45v-3.16h-.85v-.41h2.15v.41h-.85Z"/>
  <rect id="Rectangle_34" x="40.08" y="18.7" width=".45" height="3.57"/>
  <path id="Path_113" d="M42.87,18.7l1.06,2.64,1.06-2.64h.49l-1.55,3.76-1.55-3.76h.49Z"/>
  <path id="Path_114" d="M47.35,22.27v-3.57h1.92v.41h-1.47v1h1.42v.41h-1.43v1.35h1.47v.41h-1.92Z"/>
  <path id="Path_115" d="M56.46,21.38h-1.64l-.41.9h-.48l1.71-3.72,1.71,3.72h-.48l-.41-.9ZM56.27,20.97l-.63-1.45-.64,1.45h1.27Z"/>
  <path id="Path_116" d="M59.29,18.7l1,2.56,1.01-2.63,1.01,2.63,1-2.56h.48l-1.48,3.71-1.01-2.62-1.01,2.62-1.48-3.71h.48Z"/>
  <path id="Path_117" d="M67.77,21.38h-1.64l-.41.9h-.48l1.71-3.72,1.71,3.72h-.48l-.41-.9ZM67.59,20.97l-.63-1.45-.64,1.45h1.27Z"/>
  <path id="Path_118" d="M71.62,20.72l1.13,1.55h-.54l-1.05-1.51h-.19v1.51h-.45v-3.57h.54c.18,0,.36,0,.54.03.14.02.28.06.4.13.1.06.18.13.26.22.07.09.12.19.16.3.04.11.06.22.06.33,0,.12-.02.25-.06.36-.04.11-.1.22-.17.31-.08.09-.17.16-.27.22-.11.06-.23.1-.35.11M70.97,19.1v1.29h.14c.24,0,.47-.04.69-.13.18-.11.29-.31.26-.52.02-.21-.09-.41-.27-.51-.22-.09-.46-.14-.7-.13h-.11Z"/>
  <path id="Path_119" d="M74.62,22.27v-3.57h.74c.27,0,.53.04.79.11.23.07.45.18.63.33.18.15.33.34.43.55.11.24.16.51.15.77,0,.27-.05.54-.15.78-.1.22-.24.41-.43.57-.19.16-.41.27-.64.34-.26.08-.53.11-.79.11h-.73ZM75.06,19.11v2.76h.15c.22,0,.45-.02.66-.07.19-.04.37-.12.54-.24.16-.11.28-.26.36-.43.09-.2.14-.42.13-.64,0-.22-.04-.44-.13-.65-.08-.17-.21-.32-.36-.43-.16-.11-.34-.19-.54-.23-.22-.05-.44-.07-.67-.07h-.15Z"/>
  <path id="Path_120" d="M81.31,19.17l-.35.21c-.06-.1-.14-.19-.24-.26-.1-.06-.22-.09-.34-.08-.1,0-.2.02-.29.06-.09.04-.17.1-.23.18-.06.08-.09.17-.09.26,0,.22.17.39.5.51l.26.1c.17.06.32.15.47.25.13.09.23.2.3.34.08.15.12.32.11.49,0,.15-.03.3-.09.45-.06.13-.14.25-.24.35-.1.1-.23.18-.36.23-.14.05-.29.08-.44.08-.18,0-.36-.04-.52-.13-.16-.08-.29-.21-.39-.35-.1-.15-.17-.33-.19-.51l.45-.1c0,.12.03.24.09.35.06.1.15.19.25.24.11.06.23.09.35.09.12,0,.24-.03.34-.1.1-.06.18-.15.23-.26.06-.11.08-.23.08-.35,0-.15-.05-.3-.17-.41-.13-.11-.29-.2-.45-.26l-.25-.1c-.14-.06-.27-.13-.4-.22-.11-.08-.2-.17-.27-.29-.07-.12-.11-.26-.11-.4,0-.13.03-.26.09-.38.06-.11.14-.21.23-.29.1-.08.21-.14.34-.18.13-.04.26-.06.4-.06.13,0,.25.02.37.06.11.04.22.11.31.19.09.08.17.18.23.29"/>
  <path id="Path_121" d="M1.79,6.44h6.79V.68h1.78v14.28h-1.79v-6.86H1.78v6.86H0V.68h1.79v5.75Z"/>
  <path id="Path_122" d="M38.53,8.75l4.5,6.22h-2.16l-4.2-6.04h-.74v6.04h-1.78V.68h2.17c.72,0,1.44.03,2.16.11.57.07,1.11.26,1.61.54.39.23.73.53,1.01.88.57.72.87,1.61.87,2.53,0,.49-.08.98-.24,1.44-.16.45-.4.86-.7,1.23-.3.36-.66.66-1.08.89-.44.23-.91.38-1.41.44M35.93,2.28v5.17h.56c.94.04,1.88-.15,2.74-.54.74-.42,1.15-1.24,1.05-2.08.09-.84-.35-1.65-1.1-2.03-.88-.38-1.83-.56-2.79-.52h-.47Z"/>
  <rect id="Rectangle_35" x="44.38" y=".69" width="1.79" height="14.28"/>
  <path id="Path_123" d="M50.53,13.34h7.23v1.63h-10.13l7.24-12.66h-6.21V.68h9.11l-7.24,12.65Z"/>
  <path id="Path_124" d="M65.75.38c.99,0,1.97.2,2.88.59,1.81.75,3.25,2.18,4.02,3.99.39.91.59,1.88.59,2.87,0,1.01-.19,2-.58,2.93-.37.89-.92,1.71-1.61,2.38-.69.68-1.5,1.21-2.4,1.57-.92.37-1.9.56-2.89.56-1.32.01-2.61-.32-3.76-.97-2.33-1.32-3.76-3.8-3.73-6.47,0-.98.2-1.95.59-2.86.78-1.81,2.22-3.24,4.04-4.01.91-.38,1.88-.58,2.86-.58M65.75,13.61c1,0,1.97-.26,2.83-.77.87-.51,1.59-1.23,2.09-2.1.52-.89.79-1.89.78-2.92,0-.76-.14-1.51-.41-2.21-.53-1.41-1.62-2.53-3.01-3.11-1.46-.6-3.1-.6-4.57,0-.69.29-1.31.72-1.83,1.26-.51.53-.91,1.16-1.18,1.85-.28.71-.42,1.46-.41,2.22,0,2.07,1.09,3.98,2.88,5.02.86.5,1.84.77,2.83.76"/>
  <path id="Path_125" d="M74.79,14.97V0l10.72,11.24V.69h1.79v14.86l-10.72-11.23v10.65h-1.79Z"/>
</svg>